<?xml version="1.0" standalone="no"?>
<!DOCTYPE svg PUBLIC "-//W3C//DTD SVG 20010904//EN"
 "http://www.w3.org/TR/2001/REC-SVG-20010904/DTD/svg10.dtd">
<svg version="1.0" xmlns="http://www.w3.org/2000/svg"
 width="800.000000pt" height="750.000000pt" viewBox="0 0 800.000000 750.000000"
 preserveAspectRatio="xMidYMid meet">
<metadata>
Created by potrace 1.13, written by Peter Selinger 2001-2015
</metadata>
<g transform="translate(0.000000,750.000000) scale(0.100000,-0.100000)"
fill="#000000" stroke="none">
<path d="M3420 7324 c-53 -14 -205 -82 -198 -89 2 -2 37 -7 78 -10 221 -20
395 -119 517 -297 63 -92 92 -150 132 -261 26 -74 31 -104 31 -178 l0 -89 -56
0 -55 0 4 44 c6 56 -16 195 -42 269 -84 239 -285 390 -516 389 -129 0 -239
-54 -282 -135 -20 -40 -13 -114 16 -161 59 -94 219 -106 252 -19 13 34 -13 76
-43 71 -29 -4 -34 -25 -7 -24 30 1 34 -19 10 -43 -52 -52 -172 10 -181 94 -6
52 2 77 36 114 93 104 320 96 483 -16 132 -91 235 -291 242 -473 4 -95 1 -104
-34 -120 -42 -20 -49 -60 -14 -86 l24 -19 -17 -51 c-58 -168 -201 -338 -374
-445 -324 -199 -753 -207 -1301 -24 -88 29 -176 60 -195 68 l-35 15 29 11 c24
10 40 7 105 -18 220 -83 449 -144 631 -167 107 -13 280 -6 365 16 146 37 281
120 347 213 12 17 -7 2 -43 -34 -70 -70 -172 -128 -274 -155 -83 -22 -288 -30
-394 -15 -47 7 -141 26 -208 42 -124 30 -411 123 -427 139 -5 5 10 13 35 20
184 46 333 110 405 173 l43 38 116 -41 c154 -53 262 -74 338 -66 95 10 200 64
247 129 21 28 18 27 -24 -11 -92 -84 -198 -112 -333 -87 -70 13 -190 50 -304
94 l-27 10 24 48 c13 26 26 64 29 83 5 33 5 33 -9 -7 -18 -54 -54 -113 -70
-113 -7 0 -52 14 -102 30 -152 52 -244 72 -329 73 -86 0 -184 -23 -205 -48 -9
-11 -2 -10 32 5 62 27 143 35 224 21 68 -12 341 -96 357 -111 12 -11 -64 -67
-136 -100 -35 -16 -134 -49 -220 -74 l-156 -44 -193 78 c-106 43 -286 119
-400 169 -364 159 -507 201 -698 201 -63 0 -146 -7 -185 -15 -99 -21 -220 -83
-275 -141 l-45 -48 47 41 c63 57 151 99 256 124 73 18 108 20 222 16 193 -7
296 -39 695 -219 116 -52 275 -121 355 -153 80 -31 149 -61 153 -65 5 -4 -5
-11 -21 -15 -40 -8 -138 33 -587 250 -88 42 -207 92 -264 111 -359 119 -654
63 -801 -152 -60 -87 -86 -230 -60 -326 16 -57 70 -130 120 -160 88 -54 189
-46 262 20 77 69 97 159 56 242 -26 51 -89 90 -145 90 -46 0 -109 -27 -127
-55 -19 -29 -21 -76 -4 -93 18 -18 68 -15 68 4 0 13 -3 14 -14 5 -18 -15 -40
11 -31 39 15 48 106 65 163 30 91 -56 74 -213 -28 -267 -96 -51 -211 -5 -272
108 -19 37 -23 59 -23 134 0 81 3 97 32 158 57 119 165 204 303 238 30 7 105
13 165 13 186 0 328 -42 615 -181 172 -83 462 -216 489 -225 8 -2 -8 -12 -35
-22 -82 -31 -157 -72 -213 -116 l-53 -42 -111 33 c-202 59 -366 50 -449 -23
l-33 -29 35 24 c59 42 157 60 258 46 54 -8 194 -45 255 -68 27 -11 27 -11 12
-40 -22 -43 -19 -52 5 -13 11 17 24 32 29 32 5 0 79 -24 163 -54 198 -69 289
-89 381 -84 90 5 179 43 233 101 l39 41 -39 -33 c-56 -47 -140 -82 -212 -88
-97 -9 -175 12 -534 143 -34 12 124 106 248 145 l72 23 63 -23 c369 -138 625
-198 877 -205 212 -7 367 19 529 86 229 95 451 324 522 535 l21 63 64 0 64 0
0 -73 0 -73 -35 -17 c-79 -38 -99 -145 -39 -208 16 -16 39 -32 51 -35 42 -11
27 -34 -22 -34 -125 0 -194 -115 -136 -227 21 -42 110 -135 154 -161 24 -14
27 -22 27 -69 l0 -53 -1915 0 -1915 0 0 -40 0 -40 3850 0 3850 0 0 40 0 40
-1915 0 -1915 0 0 53 c0 47 3 54 29 70 45 26 135 120 154 159 9 20 17 59 17
87 0 46 -4 56 -39 93 -35 38 -43 42 -100 46 -63 5 -84 24 -37 36 13 3 38 22
56 43 30 33 32 41 28 90 -5 59 -29 93 -79 113 -28 12 -29 14 -29 86 l0 74 64
0 64 0 21 -63 c71 -211 293 -440 522 -535 160 -66 316 -92 524 -87 250 6 511
67 882 206 l63 23 72 -23 c124 -39 282 -133 248 -145 -359 -131 -437 -152
-534 -143 -74 6 -159 42 -217 93 l-44 38 44 -46 c90 -95 228 -128 388 -93 42
10 146 42 231 71 84 30 158 54 163 54 5 0 18 -15 29 -32 24 -39 27 -30 5 13
-15 29 -15 29 12 40 61 23 201 60 255 68 101 14 199 -4 258 -46 l35 -24 -33
29 c-82 73 -245 81 -449 22 l-111 -32 -53 42 c-55 44 -131 85 -211 115 l-48
18 108 47 c59 26 154 70 212 97 58 28 163 78 234 112 239 114 386 155 561 155
61 0 135 -6 165 -13 139 -34 239 -111 297 -229 36 -71 38 -82 38 -166 0 -100
-19 -153 -73 -204 -120 -112 -288 -60 -309 96 -14 107 93 186 187 137 16 -8
32 -24 35 -35 8 -26 -13 -56 -29 -40 -15 15 -26 12 -20 -5 7 -18 55 -20 72 -3
15 15 16 63 1 90 -14 26 -84 58 -129 58 -20 0 -56 -10 -80 -22 -92 -47 -117
-171 -53 -262 106 -151 302 -134 396 33 59 105 45 273 -33 385 -147 215 -442
271 -801 152 -57 -19 -221 -90 -364 -159 -363 -174 -450 -210 -487 -202 -16 4
-26 11 -21 15 4 4 73 34 153 65 80 32 240 101 355 153 399 180 502 212 695
219 114 4 149 2 222 -16 105 -25 193 -67 256 -124 l47 -41 -45 48 c-55 58
-176 120 -275 141 -38 8 -122 15 -185 15 -191 0 -334 -42 -698 -201 -114 -50
-294 -126 -400 -169 l-193 -78 -156 44 c-86 25 -185 58 -220 74 -72 33 -148
89 -136 100 18 17 293 101 365 112 85 13 171 3 229 -26 27 -13 29 -13 19 -1
-21 25 -120 48 -205 48 -85 -1 -179 -22 -329 -73 -50 -16 -95 -30 -102 -30
-16 0 -53 60 -70 113 -7 23 -13 34 -13 24 -1 -10 11 -48 25 -83 14 -36 24 -67
22 -68 -14 -13 -254 -88 -320 -101 -136 -25 -242 3 -334 87 -42 38 -45 39 -24
11 47 -65 152 -119 247 -129 76 -8 184 13 338 66 l116 41 43 -38 c72 -63 221
-127 405 -173 25 -7 40 -15 35 -20 -16 -16 -303 -109 -427 -139 -67 -16 -161
-35 -208 -42 -106 -15 -311 -7 -394 15 -102 27 -204 85 -274 155 -36 36 -55
51 -43 34 103 -144 310 -233 547 -235 209 -1 418 41 719 146 132 46 162 53
185 45 l26 -11 -35 -15 c-19 -8 -107 -39 -195 -68 -490 -163 -891 -175 -1192
-35 -226 104 -412 300 -483 504 l-17 51 24 19 c35 26 28 66 -14 86 -35 16 -36
21 -34 120 5 182 112 386 251 478 226 151 531 90 510 -103 -4 -39 -31 -75 -70
-95 -50 -26 -85 -25 -111 1 -24 24 -20 44 10 43 27 -1 22 20 -7 24 -30 5 -56
-37 -43 -71 33 -87 193 -75 252 19 91 149 -44 296 -271 296 -238 -1 -438 -160
-518 -412 -25 -77 -40 -186 -35 -246 l4 -44 -56 0 -55 0 0 88 c0 68 6 105 25
162 85 250 225 425 410 511 88 40 145 55 249 64 39 3 72 7 74 9 7 8 -145 76
-203 91 -111 28 -270 14 -377 -34 -73 -33 -151 -97 -190 -155 -5 -7 -14 -2
-25 14 -53 77 -177 151 -292 176 -84 17 -200 17 -271 -2z m210 -50 c73 -11
164 -48 235 -96 117 -77 115 -73 114 -290 l0 -183 -30 63 c-74 159 -206 313
-329 385 -70 40 -189 82 -258 90 -80 9 -62 18 70 36 53 8 131 6 198 -5z m1010
-6 l55 -12 -45 -9 c-290 -57 -474 -207 -602 -492 l-27 -60 -1 191 0 191 43 42
c137 137 361 195 577 149z m-445 -923 c0 -19 -8 -20 -189 -23 -111 -1 -194 2
-199 7 -5 5 -7 17 -4 26 6 13 31 15 199 13 185 -3 193 -4 193 -23z m-152 -246
c96 -49 64 -189 -43 -189 -33 0 -48 6 -71 29 -78 78 16 210 114 160z m-38
-288 c130 5 125 6 156 -29 31 -35 38 -86 19 -137 -12 -33 -89 -114 -140 -150
-38 -27 -41 -27 -66 -10 -88 57 -164 156 -164 212 0 78 54 127 130 118 25 -3
54 -5 65 -4z"/>
<path d="M150 2200 l0 -40 1915 0 1915 0 0 -53 c0 -47 -3 -54 -29 -70 -46 -27
-136 -120 -155 -162 -13 -27 -17 -53 -14 -92 4 -46 10 -60 41 -91 32 -31 43
-36 96 -40 63 -5 84 -24 37 -36 -13 -3 -38 -22 -56 -43 -30 -33 -32 -41 -28
-90 5 -59 29 -93 79 -113 28 -12 29 -14 29 -86 l0 -74 -64 0 -64 0 -21 63
c-71 212 -294 440 -524 536 -359 149 -780 113 -1404 -120 l-63 -23 -72 23
c-123 39 -283 133 -248 145 8 3 76 27 150 54 193 70 299 96 380 89 78 -5 161
-40 221 -93 l44 -38 -40 43 c-22 23 -69 56 -104 74 -121 59 -241 48 -516 -48
-86 -30 -161 -55 -166 -55 -5 0 -18 15 -29 33 -24 38 -27 29 -5 -14 15 -29 15
-29 -12 -40 -55 -21 -197 -59 -248 -67 -98 -16 -197 1 -261 44 -21 15 -32 19
-24 9 7 -9 37 -29 64 -43 47 -25 60 -27 171 -27 106 1 133 5 232 34 l111 33
53 -42 c55 -44 131 -85 212 -115 l48 -18 -108 -47 c-106 -46 -159 -71 -433
-203 -157 -75 -253 -111 -365 -137 -279 -65 -504 -12 -632 149 -119 151 -107
374 25 461 116 77 244 32 273 -95 15 -69 -1 -119 -50 -152 -56 -38 -150 -22
-166 27 -9 28 13 54 31 39 11 -9 14 -8 14 5 0 19 -50 22 -68 4 -15 -15 -16
-63 -1 -90 14 -26 84 -58 129 -58 91 0 170 79 170 170 0 87 -71 182 -155 210
-102 34 -225 -24 -283 -134 -24 -46 -27 -62 -27 -151 0 -92 3 -106 32 -168
125 -263 443 -344 838 -212 55 18 168 66 250 105 480 231 557 263 597 255 16
-4 26 -11 21 -15 -4 -5 -62 -30 -128 -56 -66 -25 -239 -100 -385 -164 -410
-183 -534 -220 -725 -220 -179 0 -335 50 -440 140 l-50 44 45 -48 c55 -58 177
-120 275 -141 82 -17 252 -19 345 -4 101 16 305 88 535 189 116 51 297 128
403 170 l193 79 156 -45 c86 -25 185 -58 220 -74 73 -33 148 -89 136 -100 -16
-15 -289 -99 -358 -110 -82 -13 -162 -6 -225 21 -45 19 -45 19 -20 0 27 -22
89 -39 160 -45 74 -6 173 12 319 59 76 25 144 45 150 45 15 0 42 -43 64 -104
14 -40 17 -44 12 -16 -3 19 -16 57 -29 83 l-24 48 27 11 c91 35 265 89 315 96
128 20 236 -10 320 -87 41 -38 45 -40 26 -14 -50 70 -162 125 -260 129 -88 3
-150 -9 -308 -62 l-134 -44 -46 39 c-79 66 -231 131 -401 171 -65 15 -66 15
108 74 299 103 433 130 651 130 127 1 180 -3 230 -17 106 -28 206 -84 278
-155 36 -36 56 -52 44 -36 -78 109 -222 191 -392 225 -80 15 -291 12 -395 -6
-142 -25 -308 -69 -479 -129 -133 -46 -162 -53 -185 -44 -25 9 -23 11 49 39
126 50 348 116 480 143 349 72 636 52 875 -58 219 -101 405 -297 475 -500 l17
-51 -24 -19 c-35 -26 -28 -66 14 -86 35 -16 37 -23 34 -125 -6 -180 -113 -381
-251 -473 -161 -108 -382 -113 -474 -11 -20 21 -36 47 -37 57 0 9 -2 24 -4 33
-1 9 5 35 16 58 14 32 29 46 61 61 55 25 83 25 109 -1 24 -24 20 -44 -10 -43
-27 1 -22 -20 7 -24 30 -5 56 37 43 71 -15 39 -55 60 -108 58 -62 -2 -110 -27
-140 -72 -98 -148 40 -303 267 -301 230 2 420 145 509 385 32 87 42 142 43
234 l1 83 53 0 54 0 0 -88 c0 -101 -23 -182 -90 -317 -84 -169 -200 -289 -345
-356 -89 -41 -146 -56 -250 -65 -38 -3 -71 -7 -73 -8 -8 -9 129 -70 194 -86
223 -57 467 21 576 184 5 7 14 2 25 -14 50 -73 173 -148 284 -175 139 -32 304
-9 424 60 49 28 55 35 35 35 -91 3 -210 26 -275 53 -196 81 -343 254 -434 510
-26 74 -31 104 -31 178 l0 89 54 0 53 0 1 -83 c3 -293 189 -551 439 -608 271
-62 498 111 380 290 -60 91 -215 99 -248 14 -13 -34 13 -76 43 -71 29 4 34 25
7 24 -30 -1 -34 19 -10 43 26 26 54 26 109 1 32 -15 47 -29 61 -61 11 -23 17
-49 16 -58 -2 -9 -4 -24 -4 -33 -1 -10 -17 -36 -37 -57 -92 -102 -313 -97
-474 11 -138 92 -245 293 -251 473 -3 102 -1 109 34 125 42 20 49 60 14 86
l-24 19 17 51 c70 203 256 399 475 500 339 157 812 127 1355 -85 72 -28 74
-30 49 -39 -23 -9 -52 -2 -185 44 -172 60 -338 105 -479 129 -104 18 -315 21
-395 5 -170 -33 -314 -115 -393 -225 -12 -16 6 -2 40 32 71 71 158 122 263
155 67 21 93 23 250 22 152 -1 191 -4 299 -28 112 -25 409 -116 486 -150 l30
-13 -55 -13 c-172 -40 -322 -104 -402 -171 l-46 -39 -134 44 c-158 53 -220 65
-308 62 -96 -4 -216 -63 -256 -125 -13 -19 -6 -16 28 15 79 72 190 102 314 82
50 -7 224 -61 315 -96 l27 -11 -24 -48 c-13 -26 -26 -64 -29 -83 -5 -28 -2
-24 12 16 22 61 49 104 64 104 6 0 74 -20 150 -45 146 -47 245 -65 319 -59 71
6 133 23 160 45 24 19 24 19 -22 -1 -63 -27 -153 -35 -230 -21 -68 14 -338 98
-351 111 -12 11 63 67 136 100 35 16 134 49 220 74 l156 45 193 -79 c106 -43
288 -119 403 -170 230 -101 434 -173 535 -189 93 -15 263 -13 345 4 97 21 201
73 261 131 41 40 42 42 6 10 -98 -85 -261 -136 -437 -136 -191 0 -314 37 -725
219 -146 65 -319 139 -385 166 -66 26 -124 51 -128 55 -5 4 5 11 21 15 40 8
117 -24 597 -255 83 -39 195 -87 250 -105 395 -132 713 -51 838 212 29 62 32
76 32 168 0 89 -3 105 -27 151 -77 147 -248 187 -360 86 -80 -72 -100 -168
-52 -250 29 -48 85 -81 141 -82 46 0 109 27 127 55 19 29 21 76 4 93 -17 17
-65 15 -72 -3 -4 -12 0 -14 18 -9 48 12 45 -46 -4 -71 -67 -35 -152 -3 -179
68 -12 31 -12 47 -2 92 29 127 157 172 273 95 132 -87 144 -310 25 -461 -128
-161 -353 -214 -632 -149 -112 26 -208 62 -365 137 -274 132 -327 157 -433
203 l-108 47 48 18 c81 30 157 71 212 115 l53 42 111 -33 c99 -29 126 -33 232
-34 111 0 124 2 171 27 27 14 57 34 64 43 8 10 -3 6 -24 -9 -64 -43 -163 -60
-261 -44 -51 8 -193 46 -248 67 -27 11 -27 11 -12 40 22 43 19 52 -5 14 -11
-18 -24 -33 -29 -33 -5 0 -80 25 -166 55 -275 96 -395 107 -516 48 -35 -18
-82 -51 -104 -74 l-40 -43 44 38 c60 53 143 88 221 93 81 7 187 -19 380 -89
74 -27 142 -51 150 -54 35 -12 -125 -106 -248 -145 l-72 -23 -63 23 c-625 234
-1044 269 -1404 120 -230 -96 -453 -324 -524 -536 l-21 -63 -64 0 -64 0 0 73
0 73 35 17 c79 38 99 145 39 208 -16 16 -39 32 -51 35 -42 11 -27 34 22 34
125 0 194 115 136 227 -21 42 -96 120 -148 155 -30 21 -33 27 -33 76 l0 52
1915 0 1915 0 0 40 0 40 -3850 0 -3850 0 0 -40z m3886 -192 c57 -43 116 -104
135 -140 51 -99 -12 -199 -115 -184 -22 3 -50 6 -61 5 -117 -5 -123 -4 -149
20 -56 53 -51 128 13 202 35 42 127 119 141 119 4 0 20 -10 36 -22z m35 -447
c78 -78 -16 -210 -114 -160 -96 49 -64 189 43 189 33 0 48 -6 71 -29z m124
-406 c0 -19 -8 -20 -189 -23 -111 -1 -194 2 -199 7 -5 5 -7 17 -4 26 6 13 31
15 199 13 185 -3 193 -4 193 -23z m-231 -748 c-53 -69 -177 -142 -294 -172
-78 -21 -222 -23 -305 -4 l-60 13 45 9 c96 19 208 58 269 94 124 73 247 215
324 376 l32 67 3 -180 c2 -156 0 -184 -14 -203z m195 144 c127 -171 278 -262
495 -296 21 -4 36 -9 33 -12 -13 -12 -185 -30 -246 -26 -142 11 -283 70 -377
160 l-44 43 0 187 0 188 44 -88 c24 -48 67 -118 95 -156z"/>
</g>
</svg>
